<?xml version="1.0" encoding="UTF-8" standalone="no"?>
<!DOCTYPE svg  PUBLIC '-//W3C//DTD SVG 1.1//EN'  'http://www.w3.org/Graphics/SVG/1.1/DTD/svg11.dtd'>
<svg xmlns="http://www.w3.org/2000/svg" version="1.1">
<defs>
<font id="MrEavesXLModOT-Reg" horiz-adv-x="1114">
<font-face panose-1="2 11 6 3 6 5 2 2 2 4" unicode-range="U+0020-00AD" cap-height="1229" bbox="-119 -418 1686 1440" descent="-410" font-family="MrEavesXLModOT" underline-position="-445" x-height="885" ascent="1638" units-per-em="2048" font-weight="400" underline-thickness="61"/>
<missing-glyph/>
<glyph glyph-name="space" horiz-adv-x="395" unicode=" "/>
<glyph glyph-name="exclam" horiz-adv-x="471" d="M139 1229h195l-51 -901h-95zM145 0v180h181v-180h-181z" unicode="!"/>
<glyph glyph-name="quotedbl" horiz-adv-x="786" d="M121 1229h201l-72 -426h-57zM463 1229h201l-72 -426h-57z" unicode='&quot;'/>
<glyph glyph-name="numbersign" horiz-adv-x="868" d="M31 463l20 117h148l45 264h-150l21 117h147l47 268h111l-45 -268h198l48 268h110l-45 -268h150l-23 -117h-145l-47 -264h151l-22 -117h-148l-47 -270h-111l48 270h-201l-47 -270h-111l47 270h-149zM309 580h201l45 264h-199z" unicode="#"/>
<glyph glyph-name="dollar" horiz-adv-x="956" d="M70 145l34 144q51 -56 141.5 -103.5t192.5 -58.5v455q-163 44 -249.5 132t-86.5 208q0 122 90.5 210.5t245.5 98.5v168h92v-168q86 -9 169.5 -41.5t127.5 -69.5l-34 -121q-48 34 -122 63.5t-141 39.5v-391q178 -54 265.5 -141t87.5 -222q0 -152 -102.5 -244.5 t-250.5 -103.5v-170h-92v170q-118 8 -219.5 51.5t-148.5 93.5zM248 922q0 -117 190 -185v367q-90 -9 -140 -57.5t-50 -124.5zM530 127q91 11 149 67.5t58 141.5q0 78 -47.5 128.5t-159.5 88.5v-426z" unicode="$"/>
<glyph glyph-name="percent" horiz-adv-x="1378" d="M96 952q0 131 77 218t192 87q116 0 193 -86.5t77 -218.5q0 -133 -77 -220t-193 -87q-115 0 -192 87t-77 220zM227 952q0 -99 38.5 -148.5t99.5 -49.5q60 0 99.5 49.5t39.5 148.5q0 97 -39.5 147t-99.5 50q-61 0 -99.5 -49.5t-38.5 -147.5zM260 0l784 1266l74 -37 l-784 -1266zM741 283q0 131 77 218t192 87q116 0 193 -86.5t77 -218.5q0 -133 -77 -220.5t-193 -87.5q-115 0 -192 87.5t-77 220.5zM872 283q0 -99 38.5 -149t99.5 -50q60 0 99.5 50t39.5 149q0 97 -39.5 146.5t-99.5 49.5q-61 0 -99.5 -49t-38.5 -147z" unicode="%"/>
<glyph glyph-name="ampersand" horiz-adv-x="1316" d="M94 324q0 55 18.5 103.5t54 89t74.5 72.5t93 66q-105 180 -105 310q0 129 101.5 214t249.5 85q133 0 221 -71.5t88 -178.5q0 -35 -10 -68t-22.5 -58t-40 -53t-47 -45t-59 -42.5t-60.5 -37.5t-67.5 -38t-64.5 -37q149 -206 305 -356q24 43 37.5 148.5t11.5 188.5h316v-104 h-197q-13 -200 -78 -322q79 -71 135 -96.5t115 -25.5q33 0 71.5 18t65.5 53l37 -55q-39 -60 -95 -89.5t-114 -29.5q-84 0 -153.5 24t-149.5 87q-118 -111 -301 -111q-66 0 -127.5 13.5t-116.5 42.5t-96.5 70.5t-65.5 101t-24 131.5zM252 317q0 -101 81.5 -171t207.5 -70 q59 0 111 21.5t85 58.5q-79 76 -172.5 184.5t-167.5 218.5q-145 -105 -145 -242zM377 967q0 -109 78 -240q148 84 198 125q95 77 95 162q0 65 -48 102t-120 37q-95 0 -149 -54.5t-54 -131.5z" unicode="&amp;"/>
<glyph glyph-name="quotesingle" horiz-adv-x="444" d="M121 1229h201l-72 -426h-57z" unicode="&apos;"/>
<glyph glyph-name="parenleft" horiz-adv-x="638" d="M147 604q0 495 408 832l49 -43q-41 -46 -78 -94t-84 -126.5t-80 -159.5t-56 -189.5t-23 -219.5t23 -219.5t56 -189.5t80 -159t84 -126t78 -94l-47 -43q-410 336 -410 831z" unicode="("/>
<glyph glyph-name="parenright" horiz-adv-x="638" d="M35 -184q323 357 323 788q0 432 -323 789l51 43q406 -335 406 -832t-408 -831z" unicode=")"/>
<glyph glyph-name="asterisk" horiz-adv-x="776" d="M51 754.5q13 33.5 49 54.5q23 13 54.5 18t78.5 16t103 38q-72 35 -141.5 45.5t-94.5 25.5q-36 21 -48.5 54t5.5 67q18 33 55 38.5t70 -15.5q23 -14 43 -38.5t52.5 -59.5t84.5 -70q-6 80 -30.5 145t-24.5 94q0 41 22.5 69t59.5 28t59.5 -28t22.5 -69q0 -29 -24.5 -94 t-30.5 -145q52 35 84.5 70t52.5 59.5t43 38.5q33 21 69 15t56 -38q19 -33 6 -66.5t-49 -54.5q-23 -13 -54.5 -17.5t-78.5 -15.5t-103 -38q72 -35 141.5 -46t94.5 -26q36 -21 48.5 -54t-5.5 -67q-18 -33 -55 -38t-70 16q-23 14 -43 38.5t-52.5 59.5t-84.5 70 q6 -80 30.5 -145.5t24.5 -94.5q0 -41 -22.5 -68.5t-59.5 -27.5t-59.5 27.5t-22.5 68.5q0 29 24.5 94.5t30.5 145.5q-52 -35 -84.5 -70t-52.5 -59.5t-43 -38.5q-33 -21 -69 -15.5t-56 37.5q-19 33 -6 66.5z" unicode="*"/>
<glyph glyph-name="plus" horiz-adv-x="880" d="M74 537v110h311v311h111v-311h311v-110h-311v-312h-111v312h-311z" unicode="+"/>
<glyph glyph-name="comma" horiz-adv-x="471" d="M127 -209q50 28 76 86t26 123h-88v188h189v-165q0 -106 -45.5 -182.5t-126.5 -100.5z" unicode=","/>
<glyph glyph-name="hyphen" horiz-adv-x="593" d="M90 455v114h414v-114h-414z" unicode="-"/>
<glyph glyph-name="period" horiz-adv-x="471" d="M141 0v188h189v-188h-189z" unicode="."/>
<glyph glyph-name="slash" horiz-adv-x="655" d="M-8 -8l590 1274l82 -29l-590 -1274z" unicode="/"/>
<glyph glyph-name="zero" horiz-adv-x="1110" d="M88 618q0 149 36 272.5t99 206t148.5 128t183.5 45.5q203 0 335 -177t132 -475q0 -299 -132 -476t-335 -177q-202 0 -334.5 177t-132.5 476zM248 618q0 -240 84 -381t223 -141t223 141t84 381q0 238 -84 379.5t-223 141.5t-223 -141.5t-84 -379.5z" unicode="0"/>
<glyph glyph-name="one" horiz-adv-x="536" d="M70 1077v111l286 65v-1253h-155v1077h-131z" unicode="1"/>
<glyph glyph-name="two" horiz-adv-x="907" d="M53 0v113l355 368q50 51 84 92t69 94.5t52.5 111t17.5 116.5q0 124 -61.5 181t-159.5 57q-80 0 -165 -35.5t-161 -102.5v148q45 45 143 84t187 39q172 0 275.5 -95t103.5 -264q0 -75 -22.5 -146t-65 -132.5t-75 -99.5t-81.5 -87l-309 -305h579v-137h-766z" unicode="2"/>
<glyph glyph-name="three" horiz-adv-x="956" d="M88 86v154q75 -70 154.5 -110t187.5 -40q126 0 204.5 80.5t78.5 212.5q0 119 -64.5 193.5t-185.5 74.5q-122 0 -199 -80l-67 74l440 447h-545v137h762v-82l-369 -375q166 -2 274.5 -105t108.5 -286q0 -189 -122.5 -302.5t-313.5 -113.5q-100 0 -192 34t-152 87z" unicode="3"/>
<glyph glyph-name="four" horiz-adv-x="1052" d="M51 319v91l637 841h96v-805h224v-127h-224v-319h-155v319h-578zM221 446h408v537z" unicode="4"/>
<glyph glyph-name="five" horiz-adv-x="940" d="M88 86v154q150 -150 342 -150q125 0 204 86.5t79 218.5q0 120 -64.5 198.5t-185.5 78.5q-177 0 -250 -162l-82 51v668h688v-137h-561v-381q39 41 101.5 64.5t127.5 23.5q162 0 271.5 -110.5t109.5 -293.5q0 -190 -123.5 -310t-312.5 -120q-100 0 -192 34t-152 87z" unicode="5"/>
<glyph glyph-name="six" horiz-adv-x="1026" d="M98 545q0 220 55 380t172 250.5t287 90.5q76 0 150.5 -23t114.5 -55v-141q-127 88 -263 88q-349 0 -360 -517q41 72 124.5 119t188.5 47q166 0 274.5 -113.5t108.5 -299.5q0 -172 -121 -289t-294 -117q-60 0 -116 14t-116 53.5t-104 101.5t-72.5 168t-28.5 243zM262 406 q0 -150 79 -234t183 -84q121 0 194 77.5t73 205.5q0 130 -65.5 209t-190.5 79q-103 0 -188 -73.5t-85 -179.5z" unicode="6"/>
<glyph glyph-name="seven" horiz-adv-x="888" d="M29 1092v137h807v-80q-40 -57 -108.5 -187t-143.5 -293t-139.5 -348t-86.5 -321h-172q36 174 142 427.5t198 429.5t133 235h-630z" unicode="7"/>
<glyph glyph-name="eight" horiz-adv-x="1071" d="M88 328q0 131 77.5 224.5t203.5 133.5q-100 36 -153.5 112.5t-53.5 174.5q0 125 111.5 211t263.5 86q151 0 261.5 -86t110.5 -211q0 -98 -53.5 -174.5t-153.5 -112.5q126 -40 203.5 -133.5t77.5 -224.5q0 -159 -128 -261t-318 -102t-319.5 102t-129.5 261zM244 348 q0 -113 84.5 -186.5t208.5 -73.5t207 73.5t83 186.5q0 119 -83.5 192.5t-206.5 73.5t-208 -73.5t-85 -192.5zM315 952q0 -85 65 -146t157 -61t156.5 61t64.5 146q0 91 -63 146t-158 55q-96 0 -159 -54.5t-63 -146.5z" unicode="8"/>
<glyph glyph-name="nine" horiz-adv-x="1026" d="M76 864q0 172 121.5 289t294.5 117q42 0 82 -7t84 -25t82 -46t73.5 -73.5t60 -104.5t39.5 -142t15 -182q0 -220 -55 -380t-172 -250.5t-287 -90.5q-76 0 -150 23t-114 55v141q127 -88 262 -88q349 0 360 516q-40 -71 -123.5 -118t-189.5 -47q-166 0 -274.5 113.5 t-108.5 299.5zM236 864q0 -130 65.5 -209.5t190.5 -79.5q103 0 187.5 74t84.5 180q0 150 -79 234t-183 84q-121 0 -193.5 -77.5t-72.5 -205.5z" unicode="9"/>
<glyph glyph-name="colon" horiz-adv-x="471" d="M145 0v180h181v-180h-181zM145 684v180h181v-180h-181z" unicode=":"/>
<glyph glyph-name="semicolon" horiz-adv-x="471" d="M131 -209q49 27 71.5 84.5t22.5 124.5h-80v180h181v-157q0 -107 -42 -183t-122 -100zM145 684v180h181v-180h-181z" unicode=";"/>
<glyph glyph-name="less" horiz-adv-x="890" d="M104 594l635 444l54 -77l-500 -367l500 -367l-54 -80z" unicode="&lt;"/>
<glyph glyph-name="equal" horiz-adv-x="880" d="M141 410v110h598v-110h-598zM141 668v110h598v-110h-598z" unicode="="/>
<glyph glyph-name="greater" horiz-adv-x="890" d="M98 227l500 367l-500 367l54 77l634 -444l-634 -447z" unicode="&gt;"/>
<glyph glyph-name="question" horiz-adv-x="868" d="M41 979v156q60 55 164 92t207 37q79 0 150 -19.5t128 -57.5t90 -100t33 -141q0 -68 -25 -127t-71.5 -106.5t-101.5 -84t-128 -71.5l-86 -41v-188h-127v258l95 45q162 78 222 148t60 161q0 96 -69.5 145.5t-182.5 49.5q-88 0 -192 -44.5t-166 -111.5zM248 0v180h180v-180 h-180z" unicode="?"/>
<glyph glyph-name="at" horiz-adv-x="1392" d="M51 365q0 145 57.5 278t154.5 229.5t230 153.5t279 57q245 0 408 -149.5t163 -388.5q0 -97 -35.5 -191t-90 -162t-122.5 -109.5t-132 -41.5q-62 0 -94.5 30t-41.5 74q-83 -112 -202 -112q-84 0 -139.5 51.5t-74 137t0.5 188.5q28 155 139 264.5t240 109.5q73 0 131 -34 h114l-88 -502q-12 -65 4.5 -94t61.5 -29q51 0 105.5 55t92 153.5t37.5 207.5q0 131 -65 233.5t-170.5 155.5t-231.5 53q-121 0 -231.5 -49.5t-190 -132t-127 -195.5t-47.5 -235q0 -167 74.5 -294.5t197 -193t271.5 -65.5q222 0 434 131l27 -58q-214 -153 -477 -153 q-181 0 -333 82t-240.5 226t-88.5 319zM543 410q-23 -127 7.5 -201t115.5 -74q59 0 114 55t68 136l55 321q-39 45 -117 45q-88 0 -154.5 -78.5t-88.5 -203.5z" unicode="@"/>
<glyph glyph-name="A" horiz-adv-x="1183" d="M10 0l529 1229h106l529 -1229h-168l-148 344h-541l-147 -344h-160zM373 477h430l-215 506z" unicode="A"/>
<glyph glyph-name="B" horiz-adv-x="1013" d="M129 0v1229h406q178 0 267 -90t89 -232q0 -68 -37 -133.5t-92 -107.5q88 -38 141 -123t53 -183q0 -76 -23.5 -140.5t-71 -114t-126 -77.5t-180.5 -28h-426zM293 137h262q66 0 114.5 18.5t75 51t38.5 70.5t12 83q0 97 -56.5 160.5t-183.5 63.5h-262v-447zM293 721h242 q55 0 95.5 15.5t62.5 42.5t32 58.5t10 69.5q0 80 -46.5 132.5t-153.5 52.5h-242v-371z" unicode="B"/>
<glyph glyph-name="C" horiz-adv-x="1228" d="M70 614q0 145 52 267t141.5 203t208 126t251.5 45q117 0 233 -35t193 -94v-170q-180 162 -426 162q-214 0 -348.5 -138t-134.5 -366q0 -227 134.5 -365t348.5 -138q247 0 426 161v-170q-77 -59 -193 -94t-233 -35q-133 0 -251.5 45t-208 126t-141.5 203t-52 267z" unicode="C"/>
<glyph glyph-name="D" horiz-adv-x="1263" d="M129 0v1229h381q140 0 254 -31.5t193 -87.5t133 -133.5t79 -168.5t25 -194q0 -130 -40.5 -239t-121.5 -194t-214.5 -133t-307.5 -48h-381zM293 143h219q116 0 206 25.5t147 69t93.5 105t51 127.5t14.5 144t-14.5 144t-51 127.5t-93.5 105t-147 69t-206 25.5h-219v-942z " unicode="D"/>
<glyph glyph-name="E" horiz-adv-x="962" d="M129 0v1229h743v-137h-579v-375h477v-137h-477v-443h579v-137h-743z" unicode="E"/>
<glyph glyph-name="F" horiz-adv-x="888" d="M129 0v1229h743v-137h-579v-375h477v-137h-477v-580h-164z" unicode="F"/>
<glyph glyph-name="G" horiz-adv-x="1329" d="M70 614q0 145 52 267t141.5 203t208 126t251.5 45q117 0 233 -35t193 -94v-170q-180 162 -426 162q-214 0 -348.5 -138t-134.5 -366t135 -370t348 -142q187 0 313 72v279h-252v137h416v-496q-2 -1 -51 -23.5t-83.5 -35.5t-93 -32t-122 -28.5t-127.5 -9.5q-132 0 -251 46 t-208 129t-141.5 206t-52.5 268z" unicode="G"/>
<glyph glyph-name="H" horiz-adv-x="1263" d="M129 0v1229h164v-512h678v512h164v-1229h-164v580h-678v-580h-164z" unicode="H"/>
<glyph glyph-name="I" horiz-adv-x="421" d="M129 0v1229h164v-1229h-164z" unicode="I"/>
<glyph glyph-name="J" horiz-adv-x="421" d="M-119 -227q22 -20 60 -37t67 -17q66 0 93.5 38t27.5 137v1335h164v-1354q0 -127 -63 -204t-191 -77q-55 0 -96.5 19.5t-61.5 42.5v117z" unicode="J"/>
<glyph glyph-name="K" horiz-adv-x="1105" d="M129 0v1229h164v-582l569 582h189l-584 -586l666 -643h-218l-622 604v-604h-164z" unicode="K"/>
<glyph glyph-name="L" horiz-adv-x="888" d="M129 0v1229h164v-1092h579v-137h-743z" unicode="L"/>
<glyph glyph-name="M" horiz-adv-x="1519" d="M129 0v1229h160l475 -1020l475 1020h152v-1229h-158v838q0 14 1 38.5t2 43.5l1 20q-2 -3 -43 -102l-383 -838h-111l-383 838q-34 76 -43 102l1 -20q1 -19 2.5 -43.5t1.5 -38.5v-838h-150z" unicode="M"/>
<glyph glyph-name="N" horiz-adv-x="1232" d="M129 0v1229h94l731 -916v916h150v-1229h-94l-731 915v-915h-150z" unicode="N"/>
<glyph glyph-name="O" horiz-adv-x="1443" d="M70 614q0 186 84 334.5t233.5 232t335.5 83.5q185 0 334 -83.5t233 -232t84 -334.5t-84 -334.5t-233 -231.5t-334 -83q-139 0 -260.5 48.5t-207.5 134t-135.5 206.5t-49.5 260zM240 614q0 -223 135.5 -367.5t347.5 -144.5q210 0 345.5 144.5t135.5 367.5q0 224 -135 368 t-346 144q-212 0 -347.5 -144t-135.5 -368z" unicode="O"/>
<glyph glyph-name="P" horiz-adv-x="958" d="M129 0v1229h406q199 0 300 -105t101 -266t-101 -266t-300 -105h-242v-487h-164zM293 625h242q66 0 114.5 20t74.5 54.5t38 74t12 84.5t-12 84.5t-38 74.5t-74.5 55t-114.5 20h-242v-467z" unicode="P"/>
<glyph glyph-name="Q" horiz-adv-x="1443" d="M70 614q0 186 84 334.5t233.5 232t335.5 83.5q185 0 334 -83.5t233 -232t84 -334.5q0 -237 -135 -408.5t-354 -221.5l61 -107q54 -91 107 -126.5t125 -35.5q32 0 69 9v-115q-58 -15 -112 -15q-215 0 -342 230l-78 141q-184 2 -331.5 85.5t-230.5 231t-83 332.5zM240 614 q0 -223 135.5 -367.5t347.5 -144.5q210 0 345.5 144.5t135.5 367.5q0 224 -135 368t-346 144q-212 0 -347.5 -144t-135.5 -368z" unicode="Q"/>
<glyph glyph-name="R" horiz-adv-x="1048" d="M129 0v1229h406q200 0 300.5 -100.5t100.5 -260.5q0 -126 -63.5 -217t-190.5 -125l373 -526h-191l-352 508h-219v-508h-164zM293 645h242q127 0 183 63t56 160t-56 160.5t-183 63.5h-242v-447z" unicode="R"/>
<glyph glyph-name="S" horiz-adv-x="956" d="M66 123l36 151q155 -168 373 -168q111 0 184.5 59t73.5 157q0 97 -62 154.5t-229 101.5q-171 45 -256.5 136t-85.5 222q0 136 106.5 227.5t289.5 91.5q98 0 187 -33t146 -79l-36 -129q-65 47 -145 77.5t-152 30.5q-115 0 -178.5 -49.5t-63.5 -136.5q0 -71 55.5 -124 t192.5 -89q200 -53 292.5 -144.5t92.5 -242.5q0 -115 -60 -199.5t-151.5 -124t-200.5 -39.5q-138 0 -243.5 44.5t-165.5 105.5z" unicode="S"/>
<glyph glyph-name="T" horiz-adv-x="1067" d="M14 1092v137h1037v-137h-437v-1092h-163v1092h-437z" unicode="T"/>
<glyph glyph-name="U" horiz-adv-x="1323" d="M129 567v662h168v-664q0 -231 97 -343.5t272 -112.5t271.5 112.5t96.5 343.5v664h160v-662q0 -302 -142.5 -452t-389.5 -150q-121 0 -217.5 36t-167.5 108.5t-109.5 188.5t-38.5 269z" unicode="U"/>
<glyph glyph-name="V" horiz-adv-x="1183" d="M10 1229h168l418 -979l418 979h160l-529 -1229h-106z" unicode="V"/>
<glyph glyph-name="W" horiz-adv-x="1695" d="M10 1229h168l295 -907q3 -12 9 -43t7 -33q0 16 21 76l291 907h102l291 -907l20 -76q9 53 17 76l295 907h160l-424 -1229h-103l-291 842q-4 10 -12 38l-8 29q-1 -2 -5 -15t-8.5 -29t-7.5 -23l-290 -842h-103z" unicode="W"/>
<glyph glyph-name="X" horiz-adv-x="1110" d="M-8 0l467 631l-443 598h191l350 -481l354 481h183l-443 -600l467 -629h-190l-375 514l-379 -514h-182z" unicode="X"/>
<glyph glyph-name="Y" horiz-adv-x="1122" d="M-2 1229h178l389 -604l389 604h170l-481 -737v-492h-164v492z" unicode="Y"/>
<glyph glyph-name="Z" horiz-adv-x="983" d="M68 0v94l645 998h-645v137h845v-94l-645 -998h645v-137h-845z" unicode="Z"/>
<glyph glyph-name="bracketleft" horiz-adv-x="626" d="M217 -180v1569h332v-86h-207v-1397h207v-86h-332z" unicode="["/>
<glyph glyph-name="backslash" horiz-adv-x="655" d="M-10 1237l82 29l590 -1274l-82 -29z" unicode="\"/>
<glyph glyph-name="bracketright" horiz-adv-x="626" d="M78 -94h209v1397h-209v86h334v-1569h-334v86z" unicode="]"/>
<glyph glyph-name="asciicircum" horiz-adv-x="956" d="M33 629l446 635l445 -635l-78 -54l-367 500l-366 -500z" unicode="^"/>
<glyph glyph-name="underscore" horiz-adv-x="675" d="M-10 0h696v-90h-696v90z" unicode="_"/>
<glyph glyph-name="grave" horiz-adv-x="614" d="M127 1176l76 114l276 -229l-26 -43z" unicode="`"/>
<glyph glyph-name="a" d="M76 442q0 196 120.5 331.5t301.5 135.5q108 0 200 -49t148 -135l6 160h135v-885h-135l-6 160q-56 -86 -148 -135.5t-200 -49.5q-181 0 -301.5 135.5t-120.5 331.5zM231 442q0 -155 88 -248.5t218 -93.5t217.5 93t87.5 249t-87.5 249t-217.5 93t-218 -93.5t-88 -248.5z " unicode="a"/>
<glyph glyph-name="b" d="M127 0v1229h156v-484q56 76 144 120t189 44q181 0 301.5 -135.5t120.5 -331.5t-120.5 -331.5t-301.5 -135.5q-108 0 -200 49.5t-148 135.5l-6 -160h-135zM272 442q0 -155 88 -248.5t218 -93.5t217.5 93t87.5 249t-87.5 249t-217.5 93t-218 -93.5t-88 -248.5z" unicode="b"/>
<glyph glyph-name="c" horiz-adv-x="921" d="M78 442q0 206 129.5 336.5t331.5 130.5q93 0 165 -20t144 -70v-141q-112 104 -295 104q-141 0 -230.5 -96.5t-89.5 -243.5q0 -150 89 -245t231 -95q182 0 295 105v-141q-72 -51 -144.5 -71t-164.5 -20q-202 0 -331.5 130.5t-129.5 336.5z" unicode="c"/>
<glyph glyph-name="d" d="M76 442q0 196 120.5 331.5t301.5 135.5q101 0 189 -44t144 -120v484h156v-1229h-135l-6 160q-56 -86 -148 -135.5t-200 -49.5q-181 0 -301.5 135.5t-120.5 331.5zM231 442q0 -155 88 -248.5t218 -93.5t217.5 93t87.5 249t-87.5 249t-217.5 93t-218 -93.5t-88 -248.5z" unicode="d"/>
<glyph glyph-name="e" horiz-adv-x="970" d="M78 449q0 103 36.5 191.5t96.5 146t136.5 90t158.5 32.5q166 0 271.5 -96.5t105.5 -247.5q0 -33 -13 -100h-639q-1 -17 -1 -35q0 -32 4 -63q8 -48 32 -97t62 -85.5t102 -59.5t145 -23q75 0 157.5 32.5t133.5 82.5v-137q-62 -50 -153.5 -77.5t-190.5 -27.5 q-194 0 -319 134t-125 340zM246 573h487q3 16 3 32q0 69 -52 119q-64 62 -172 62q-99 0 -173 -54.5t-93 -158.5z" unicode="e"/>
<glyph glyph-name="f" horiz-adv-x="559" d="M-10 778v107h180v2q0 189 70.5 272.5t214.5 83.5q54 0 110 -18v-111q-62 12 -94 12q-83 0 -114 -48t-31 -181v-12h239v-107h-239v-778h-156v778h-180z" unicode="f"/>
<glyph glyph-name="g" d="M76 442q0 196 120.5 331.5t301.5 135.5q108 0 200 -49t148 -135l6 160h135v-807q0 -99 -19.5 -178.5t-55 -132.5t-79.5 -90.5t-99 -57.5t-107 -28.5t-109 -8.5q-93 0 -189 28.5t-175 74.5v139q105 -64 187 -89.5t196 -25.5q60 0 111 19t93 59t66 110t24 164v78 q-56 -76 -144 -120t-189 -44q-181 0 -301.5 135.5t-120.5 331.5zM231 442q0 -155 88 -248.5t218 -93.5t217.5 93t87.5 249t-87.5 249t-217.5 93t-218 -93.5t-88 -248.5z" unicode="g"/>
<glyph glyph-name="h" horiz-adv-x="1060" d="M127 0v1229h156v-496q62 79 147 127.5t186 48.5q86 0 149 -28.5t100 -81.5t54 -120.5t17 -152.5v-526h-156v512q0 143 -52.5 203.5t-154.5 60.5q-64 0 -131 -33t-113 -93t-46 -128v-522h-156z" unicode="h"/>
<glyph glyph-name="i" horiz-adv-x="409" d="M127 0v885h156v-885h-156zM127 1059v170h156v-170h-156z" unicode="i"/>
<glyph glyph-name="j" horiz-adv-x="409" d="M-111 -248q21 -20 57.5 -35.5t65.5 -15.5q63 0 89 35.5t26 130.5v1018h156v-1037q0 -121 -60 -193.5t-182 -72.5q-52 0 -91.5 18.5t-60.5 39.5v112zM127 1059v170h156v-170h-156z" unicode="j"/>
<glyph glyph-name="k" horiz-adv-x="919" d="M127 0v1229h156v-721l422 377h192l-451 -396l467 -489h-202l-428 459v-459h-156z" unicode="k"/>
<glyph glyph-name="l" horiz-adv-x="409" d="M127 0v1229h156v-1229h-156z" unicode="l"/>
<glyph glyph-name="m" horiz-adv-x="1640" d="M127 0v885h135l10 -170q58 89 142 141.5t184 52.5q224 0 281 -202q144 202 338 202q69 0 121.5 -19t86 -52t54 -82.5t29 -105t8.5 -124.5v-526h-156v514q0 143 -45 202.5t-144 59.5q-100 0 -186 -75.5t-86 -178.5v-522h-156v514q0 143 -44.5 202.5t-143.5 59.5 q-100 0 -186 -75.5t-86 -178.5v-522h-156z" unicode="m"/>
<glyph glyph-name="n" horiz-adv-x="1060" d="M127 0v885h135l10 -170q52 84 144 139t200 55q86 0 149 -28.5t100 -81.5t54 -120.5t17 -152.5v-526h-156v512q0 143 -52.5 203.5t-154.5 60.5q-64 0 -131 -33t-113 -93t-46 -128v-522h-156z" unicode="n"/>
<glyph glyph-name="o" horiz-adv-x="1095" d="M66 442q0 129 60 237.5t171.5 173.5t251.5 65q139 0 250 -65t171 -173.5t60 -237.5q0 -130 -60 -238t-171 -172.5t-250 -64.5q-211 0 -347 138t-136 337zM221 442q0 -150 90 -250t238 -100q147 0 236 100t89 250q0 149 -89 250t-236 101q-148 0 -238 -101t-90 -250z" unicode="o"/>
<glyph glyph-name="p" d="M127 -399v1284h135l6 -160q56 86 148 135t200 49q181 0 301.5 -135.5t120.5 -331.5t-120.5 -331.5t-301.5 -135.5q-101 0 -189 44t-144 120v-538h-156zM272 442q0 -155 88 -248.5t218 -93.5t217.5 93t87.5 249t-87.5 249t-217.5 93t-218 -93.5t-88 -248.5z" unicode="p"/>
<glyph glyph-name="q" d="M76 442q0 196 120.5 331.5t301.5 135.5q108 0 200 -49t148 -135l6 160h135v-1284h-156v538q-56 -76 -144 -120t-189 -44q-181 0 -301.5 135.5t-120.5 331.5zM231 442q0 -155 88 -248.5t218 -93.5t217.5 93t87.5 249t-87.5 249t-217.5 93t-218 -93.5t-88 -248.5z" unicode="q"/>
<glyph glyph-name="r" horiz-adv-x="645" d="M127 0v885h135l10 -170q44 84 139 139t205 55v-168q-33 6 -65 6q-49 0 -95 -14q-77 -23 -125 -78.5t-48 -128.5v-526h-156z" unicode="r"/>
<glyph glyph-name="s" horiz-adv-x="804" d="M66 66l30 122q147 -92 301 -92q89 0 143 33.5t54 103.5q0 56 -55 92.5t-170 65.5q-137 34 -206 103.5t-69 158.5q0 111 84.5 184.5t239.5 73.5q65 0 133.5 -18.5t104.5 -36.5l36 -18l-30 -119q-47 32 -113.5 52t-130.5 20q-89 0 -134.5 -31t-45.5 -86q0 -103 190 -150 q151 -36 230 -103t79 -155q0 -137 -94.5 -215t-249.5 -78q-84 0 -166 23.5t-121 46.5z" unicode="s"/>
<glyph glyph-name="t" horiz-adv-x="624" d="M35 778v107h198v241h156v-241h201v-107h-201v-778h-156v778h-198z" unicode="t"/>
<glyph glyph-name="u" horiz-adv-x="1060" d="M125 358v527h156v-512q0 -143 52 -203.5t154 -60.5q64 0 131 32.5t113.5 92.5t46.5 128v523h156v-885h-135l-11 170q-52 -84 -145 -139.5t-199 -55.5q-86 0 -149 28.5t-99.5 81.5t-53.5 120.5t-17 152.5z" unicode="u"/>
<glyph glyph-name="v" horiz-adv-x="890" d="M4 885h160l287 -664l284 664h152l-389 -887h-105z" unicode="v"/>
<glyph glyph-name="w" horiz-adv-x="1431" d="M16 885h154l252 -666l252 666h92l254 -666l250 666h145l-348 -887h-100l-250 641l-254 -641h-98z" unicode="w"/>
<glyph glyph-name="x" horiz-adv-x="903" d="M8 0l352 451l-331 434h172l252 -328l258 328h163l-331 -428l352 -457h-180l-266 350l-269 -350h-172z" unicode="x"/>
<glyph glyph-name="y" horiz-adv-x="890" d="M4 885h160l287 -664l284 664h152l-563 -1284h-154l201 448z" unicode="y"/>
<glyph glyph-name="z" horiz-adv-x="794" d="M41 0v94l500 668h-473v123h659v-94l-500 -668h510v-123h-696z" unicode="z"/>
<glyph glyph-name="braceleft" horiz-adv-x="638" d="M104 580v53q85 29 105 40q73 41 97 141q16 65 16 165q0 115 6.5 180t29.5 119t60.5 88t107.5 74l41 -60q-31 -21 -52 -41t-35 -48t-21.5 -51t-11.5 -69t-4.5 -81t-0.5 -107q0 -88 -9.5 -150t-25 -100.5t-45.5 -64t-60 -38t-79 -24.5q49 -12 79 -24.5t60 -38t45.5 -64 t25 -100.5t9.5 -150q0 -72 0.5 -107t4.5 -81t11.5 -69t21.5 -51t35 -48t52 -41l-41 -59q-70 40 -107.5 73.5t-60.5 87.5t-29.5 118.5t-6.5 180.5q0 99 -13 162.5t-46 98t-57.5 47.5t-78.5 31q-15 5 -23 8z" unicode="{"/>
<glyph glyph-name="bar" horiz-adv-x="450" d="M174 -197v1602h102v-1602h-102z" unicode="|"/>
<glyph glyph-name="braceright" horiz-adv-x="638" d="M72 -168q31 21 52 41t35 48t21.5 51t11.5 69t4.5 81t0.5 107q0 88 9.5 150t25 100.5t45.5 64t60 38t79 24.5q-49 12 -79 24.5t-60 38t-45.5 64t-25 100.5t-9.5 150q0 72 -0.5 107t-4.5 81t-11.5 69t-21.5 51t-35 48t-52 41l41 60q70 -40 107.5 -74t60.5 -88t29.5 -119 t6.5 -180q0 -98 13 -161.5t46 -98t57 -47.5t79 -31q15 -5 23 -8v-53q-85 -29 -106 -41q-74 -42 -98 -147q-14 -64 -14 -159q0 -116 -6.5 -180.5t-29.5 -118.5t-60.5 -87.5t-107.5 -73.5z" unicode="}"/>
<glyph glyph-name="asciitilde" horiz-adv-x="890" d="M135 401q0 116 43.5 174t122.5 58q41 0 98.5 -31.5t113.5 -62.5t93 -31q38 0 54 26t32 91h60q0 -116 -43.5 -174t-122.5 -58q-41 0 -98.5 31.5t-113.5 62.5t-93 31q-38 0 -54 -26t-32 -91h-60z" unicode="~"/>
<glyph glyph-name="uni00A0" horiz-adv-x="395" unicode=" "/>
<glyph glyph-name="copyright" horiz-adv-x="1382" d="M43 614q0 132 51.5 252.5t138.5 207.5t207 138.5t252 51.5t252 -51.5t206.5 -139t137.5 -207.5t51 -252q0 -176 -86.5 -325.5t-235.5 -236.5t-325 -87t-325.5 87t-236.5 236.5t-87 325.5zM109 614q0 -119 46 -226.5t123.5 -186t186 -124.5t227.5 -46q158 0 292.5 78 t213 212.5t78.5 292.5q0 159 -78.5 293.5t-212.5 212.5t-293 78t-293.5 -78t-212 -212.5t-77.5 -293.5zM297 614q0 124 61 221t157 146t208 49q164 0 276 -84v-131q-58 47 -118.5 71.5t-145.5 24.5q-119 0 -200.5 -82t-81.5 -215q0 -132 81.5 -214.5t200.5 -82.5 q149 0 264 97v-131q-112 -84 -276 -84q-112 0 -208 49t-157 145.5t-61 220.5z" unicode="©"/>
<glyph glyph-name="uni00AD" horiz-adv-x="593" d="M90 455v114h414v-114h-414z" unicode="­"/>
</font>
</defs>
</svg>
